<svg width="500" height="100" viewBox="0 0 500 100" fill="none" xmlns="http://www.w3.org/2000/svg">
<g clip-path="url(#clip0_847_248)">
<path d="M1.71217 97.9983C0.757337 97.9983 -0.000468892 97.2249 -0.000468892 96.2846V90.8099C-0.000468892 89.9152 0.681556 89.1721 1.57577 89.0963C3.0156 88.9749 4.0159 88.5958 4.54636 87.9589C5.16776 87.2309 5.57698 86.0329 5.75885 84.395C5.98619 82.469 6.09229 79.9819 6.09229 77.0095V25.2352C6.09229 23.385 6.1226 21.6107 6.18322 19.8818C6.21354 18.9871 6.24385 18.1682 6.27416 17.3947C5.84979 17.4251 5.42542 17.4554 4.97073 17.4857C3.81887 17.5767 2.78826 17.6525 1.86373 17.7284C1.81826 17.7284 1.75764 17.7284 1.71217 17.7284C1.2878 17.7284 0.863429 17.5615 0.545151 17.2734C0.196561 16.9549 -0.015625 16.4848 -0.015625 15.9995V9.15997C-0.015625 8.20455 0.757337 7.44629 1.69702 7.44629H23.1126C24.0674 7.44629 24.8252 8.21972 24.8252 9.15997V14.6346C24.8252 15.5597 24.0977 16.318 23.1884 16.3483C21.8395 16.409 20.8846 16.7729 20.339 17.4099C19.6873 18.1833 19.2629 19.3814 19.0811 20.9889C18.8537 22.8694 18.7476 25.3717 18.7476 28.4351V79.5725C18.7476 81.8169 18.7476 83.8491 18.7022 85.6386C18.7022 86.4878 18.6719 87.2613 18.6264 87.9437C19.0659 87.9134 19.5054 87.883 19.9601 87.8679C21.112 87.8224 22.1123 87.7617 22.9459 87.6859C23.0065 87.6859 23.052 87.6859 23.1126 87.6859C23.537 87.6859 23.9462 87.8375 24.2645 88.1257C24.6282 88.4442 24.8252 88.9143 24.8252 89.3996V96.2391C24.8252 97.1945 24.0523 97.9528 23.1126 97.9528H1.71217V97.9983Z" fill="black"/>
<path d="M46.5757 97.9978C45.6209 97.9978 44.8631 97.2243 44.8631 96.2841V90.8094C44.8631 89.9147 45.5451 89.1716 46.4393 89.0957C47.864 88.9744 48.8491 88.5953 49.3493 87.9735C49.9404 87.2607 50.3496 85.9869 50.5466 84.3187C50.774 82.3624 50.88 79.8904 50.88 76.9938V16.7876L45.3178 16.8786C42.4078 16.8786 40.4375 18.1828 39.0886 21.0036C37.5881 24.1579 36.8152 29.2231 36.8152 36.0627C36.8152 37.0181 36.0422 37.7764 35.1025 37.7764H31.0104C30.5557 37.7764 30.101 37.5944 29.7827 37.2607C29.4645 36.9271 29.2826 36.4873 29.2978 36.0172L29.8131 9.14429C29.8282 8.20404 30.6012 7.46094 31.5257 7.46094H82.8897C83.8294 7.46094 84.5872 8.20404 84.6024 9.14429L85.1177 36.0172C85.1177 36.4722 84.951 36.9271 84.6327 37.2607C84.3144 37.5944 83.8749 37.7764 83.4051 37.7764H79.3129C78.3732 37.7764 77.6003 37.0181 77.6003 36.0779C77.5396 31.4828 77.1759 27.6308 76.509 24.6129C75.8876 21.8073 74.8873 19.7145 73.5384 18.38C72.3411 17.1971 70.7194 16.6359 68.5824 16.6359H68.2186H63.6112L63.5202 79.6174C63.5202 81.8619 63.5202 83.8789 63.4748 85.6836C63.4748 86.548 63.4293 87.3214 63.399 88.019C63.9446 87.9735 64.5054 87.9432 65.0965 87.928C66.3696 87.8825 67.5215 87.8219 68.5369 87.746C68.5824 87.746 68.6279 87.746 68.6733 87.746C69.0977 87.746 69.5221 87.9128 69.8403 88.201C70.1889 88.5195 70.386 88.9896 70.386 89.4597V96.2993C70.386 97.2547 69.613 98.0129 68.6733 98.0129H46.5606L46.5757 97.9978Z" fill="black"/>
<path d="M97.182 40.1431C96.7121 40.1431 96.2574 39.9459 95.9392 39.5971L93.2414 36.7309C92.7261 36.1849 92.62 35.3812 92.9837 34.7291C93.5748 33.6675 94.2114 32.0903 94.9086 30.0278C95.6057 27.9502 96.1968 25.6299 96.6818 23.0973C97.0001 21.3988 97.1668 19.7306 97.1971 18.0927C97.0607 18.0927 96.9092 18.0927 96.7576 18.0927C95.53 18.0927 93.7567 17.6681 92.1805 15.6208C91.0134 14.1194 90.4375 12.1176 90.4375 9.66081C90.4375 6.90073 91.0589 4.62593 92.2714 2.89709C93.9537 0.485806 95.9846 -0.0146484 97.379 -0.0146484C99.4099 -0.0146484 102.214 0.743617 104.017 4.36812C105.26 6.88556 105.897 10.0096 105.897 13.6493C105.897 15.9847 105.609 18.7297 105.048 21.8082C104.487 24.8716 103.654 27.9653 102.578 30.9681C101.501 34.0011 100.198 36.8067 98.6824 39.309C98.4096 39.7639 97.9246 40.0672 97.3942 40.1279C97.3335 40.1279 97.2729 40.1279 97.2123 40.1279L97.182 40.1431Z" fill="black"/>
<path d="M131.904 99.9999C129.207 99.9999 126.342 99.4236 123.402 98.2711C121.704 97.6038 120.068 96.7697 118.537 95.7688L118.658 97.1488C118.704 97.6341 118.537 98.1042 118.203 98.453C117.87 98.8018 117.415 99.0142 116.945 99.0142H111.641C110.701 99.0142 109.928 98.2559 109.928 97.3156L109.58 69.9423C109.58 69.4873 109.746 69.0324 110.08 68.7139C110.398 68.3803 110.837 68.1983 111.307 68.1983H115.49C116.4 68.1983 117.142 68.8959 117.203 69.8058C117.643 76.615 119.34 81.7712 122.235 85.1531C125.084 88.4743 128.373 90.097 132.283 90.097C134.163 90.097 135.83 89.6117 137.361 88.6259C138.876 87.6402 140.104 86.1995 141.013 84.3493C141.938 82.4385 142.408 80.1334 142.408 77.5098C142.408 74.4464 141.771 71.8683 140.528 69.821C139.225 67.6978 137.558 65.8476 135.557 64.316C133.435 62.6933 131.177 61.1464 128.858 59.6754C126.433 58.1588 124.069 56.5362 121.826 54.868C119.492 53.1391 117.355 51.1221 115.475 48.8625C113.55 46.5574 112.02 43.8125 110.913 40.6884C109.807 37.5795 109.246 33.8944 109.246 29.7239C109.246 27.2823 109.549 24.689 110.155 22.0048C110.777 19.275 111.838 16.6362 113.323 14.1643C114.854 11.6014 116.976 9.50855 119.613 7.91619C122.28 6.30867 125.645 5.48975 129.601 5.48975C131.98 5.48975 134.663 5.97504 137.588 6.94562C139.346 7.5219 141.013 8.37115 142.59 9.47822L142.514 8.31049C142.483 7.84037 142.65 7.37024 142.968 7.02144C143.287 6.67264 143.741 6.47549 144.226 6.47549H149.455C150.41 6.47549 151.168 7.24892 151.168 8.18917V36.063C151.168 37.0184 150.395 37.7767 149.455 37.7767H145.454C144.545 37.7767 143.802 37.0791 143.741 36.1692C143.469 32.12 142.726 28.4197 141.574 25.1743C140.453 22.0503 138.907 19.5328 136.967 17.6978C135.224 16.0448 133.102 15.241 130.51 15.241H130.192C127.449 15.241 125.372 16.2874 123.781 18.4106C122.083 20.7005 121.25 23.4151 121.25 26.7212C121.25 29.6329 121.811 32.0897 122.932 34.0005C124.099 36.0023 125.706 37.8373 127.706 39.4297C129.828 41.1282 132.253 42.8419 134.905 44.5556C137.103 45.8901 139.407 47.4218 141.695 49.1052C144.045 50.834 146.227 52.8207 148.152 55.0196C150.137 57.2793 151.744 60.009 152.911 63.1482C154.078 66.2723 154.669 69.9726 154.669 74.1431C154.669 79.0111 153.76 83.4394 151.986 87.3065C150.183 91.2344 147.561 94.3584 144.196 96.6029C140.816 98.8625 136.709 99.9999 131.965 99.9999H131.904Z" fill="black"/>
<path d="M214.503 97.9983C213.548 97.9983 212.79 97.2248 212.79 96.2846V90.8099C212.79 89.8848 213.518 89.1265 214.442 89.0962C215.822 89.0356 216.701 88.6868 217.064 88.0498C217.565 87.1551 217.747 86.0025 217.64 84.6073C217.504 82.9694 217.216 81.3164 216.777 79.6786L214.503 70.9282L195.876 71.5803L193.648 81.1193C193.315 82.742 192.921 84.3798 192.496 85.9115C192.315 86.5636 192.148 87.2006 191.966 87.8375C192.269 87.8223 192.587 87.8072 192.906 87.792C194.058 87.7465 195.088 87.6858 195.982 87.61C196.028 87.61 196.088 87.61 196.134 87.61C196.558 87.61 196.967 87.7617 197.286 88.065C197.649 88.3834 197.847 88.8536 197.847 89.3389V96.2997C197.847 97.2551 197.074 98.0134 196.134 98.0134H179.068C178.113 98.0134 177.355 97.24 177.355 96.2997V90.7037C177.355 89.7483 178.128 88.9901 179.068 88.9901C180.25 88.9901 181.054 88.5958 181.66 87.7313C182.478 86.5636 183.175 84.9258 183.767 82.8481C184.403 80.5733 185.1 78.0255 185.843 75.22L203.424 6.43016C203.621 5.6719 204.303 5.14111 205.091 5.14111H208.577C209.35 5.14111 210.032 5.65673 210.229 6.39983L229.295 76.2057C229.75 77.7677 230.296 79.9667 230.887 82.7116C231.311 84.668 231.569 86.4423 231.675 88.0346C232.069 88.0043 232.448 87.974 232.842 87.9588C233.767 87.9133 234.661 87.8527 235.494 87.7768C235.555 87.7768 235.6 87.7768 235.661 87.7768C236.085 87.7768 236.495 87.9285 236.813 88.2166C237.177 88.5351 237.374 89.0052 237.374 89.4905V96.3301C237.374 97.2855 236.601 98.0437 235.661 98.0437H214.503V97.9983ZM212.108 61.465L207.183 42.5842C206.486 39.8242 205.803 37.0944 205.167 34.395C205.121 34.1978 205.076 34.0158 205.031 33.8187C204.47 36.1996 203.818 38.8081 203.106 41.5833L198.241 61.4499H212.108V61.465Z" fill="black"/>
<path d="M265.579 97.998C264.625 97.998 263.867 97.2246 263.867 96.2844V90.8097C263.867 89.9149 264.549 89.1718 265.443 89.096C266.883 88.9747 267.883 88.5955 268.414 87.9586C269.035 87.2307 269.444 86.0326 269.626 84.3948C269.853 82.4688 269.959 79.9817 269.959 77.0093V25.2349C269.959 23.3848 269.99 21.6104 270.05 19.8816C270.081 18.9868 270.111 18.1679 270.141 17.3945C269.717 17.4248 269.293 17.4551 268.838 17.4855C267.686 17.5764 266.655 17.6523 265.731 17.7281C265.685 17.7281 265.625 17.7281 265.579 17.7281C265.155 17.7281 264.731 17.5613 264.412 17.2731C264.064 16.9547 263.852 16.4845 263.852 15.9993V9.15971C263.852 8.21946 264.609 7.44603 265.564 7.44603L287.768 7.32471C293.391 7.32471 298.529 8.38628 303.03 10.4639C307.547 12.5567 311.442 15.6353 314.625 19.5934C317.777 23.5364 320.187 28.359 321.809 33.9398C323.415 39.46 324.233 45.6929 324.233 52.4566C324.233 58.1285 323.536 63.7093 322.172 69.0626C320.793 74.4615 318.656 79.3447 315.792 83.591C312.912 87.8828 309.214 91.386 304.849 94.0096C300.423 96.6483 295.149 97.9829 289.177 97.9829H265.595L265.579 97.998ZM282.494 88.2316C283.115 88.2316 283.736 88.2619 284.358 88.2771C285.555 88.3226 286.631 88.3377 287.571 88.3377H289.617C292.891 88.3377 295.71 87.5037 298.226 85.7748C300.787 84.0308 303 81.5437 304.803 78.3741C306.652 75.1439 308.092 71.3223 309.062 67.0305C310.047 62.6932 310.548 58.0071 310.548 53.1087C310.548 45.2076 309.638 38.4287 307.85 32.9844C306.107 27.6917 303.47 23.6122 300.014 20.8522C296.604 18.1224 292.254 16.6969 287.101 16.621C285.707 16.621 284.737 16.9092 284.206 17.5006C283.6 18.1679 283.176 19.366 282.994 20.9583C282.766 22.8691 282.66 25.3563 282.66 28.3438V79.7238C282.66 81.9683 282.66 83.9701 282.615 85.7293C282.6 86.6544 282.569 87.4885 282.539 88.2316H282.494Z" fill="black"/>
<path d="M356.652 97.9983C355.697 97.9983 354.939 97.2248 354.939 96.2846V90.8099C354.939 89.8848 355.666 89.1265 356.591 89.0962C357.97 89.0356 358.849 88.6868 359.213 88.0498C359.713 87.1551 359.895 86.0025 359.789 84.6073C359.652 82.9694 359.364 81.3164 358.925 79.6786L356.652 70.9282L338.025 71.5803L335.797 81.1193C335.463 82.742 335.069 84.3798 334.645 85.9115C334.463 86.5636 334.296 87.2006 334.114 87.8375C334.418 87.8223 334.736 87.8072 335.054 87.792C336.206 87.7465 337.237 87.6858 338.131 87.61C338.176 87.61 338.237 87.61 338.282 87.61C338.707 87.61 339.116 87.7617 339.434 88.065C339.798 88.3834 339.995 88.8536 339.995 89.3389V96.2997C339.995 97.2551 339.222 98.0134 338.282 98.0134H321.217C320.262 98.0134 319.504 97.24 319.504 96.2997V90.7037C319.504 89.7483 320.277 88.9901 321.217 88.9901C322.399 88.9901 323.202 88.5958 323.808 87.7313C324.627 86.5636 325.324 84.9258 325.915 82.8481C326.551 80.5733 327.249 78.0255 327.991 75.22L345.572 6.43016C345.769 5.6719 346.451 5.14111 347.24 5.14111H350.725C351.498 5.14111 352.18 5.65673 352.378 6.39983L371.444 76.2057C371.899 77.7677 372.444 79.9667 373.035 82.7116C373.46 84.668 373.717 86.4423 373.823 88.0346C374.217 88.0043 374.596 87.974 374.99 87.9588C375.915 87.9133 376.809 87.8527 377.643 87.7768C377.703 87.7768 377.749 87.7768 377.809 87.7768C378.234 87.7768 378.643 87.9285 378.961 88.2166C379.325 88.5351 379.522 89.0052 379.522 89.4905V96.3301C379.522 97.2855 378.749 98.0437 377.809 98.0437H356.652V97.9983ZM354.257 61.465L349.331 42.5842C348.634 39.8242 347.952 37.0944 347.315 34.395C347.27 34.1978 347.224 34.0158 347.179 33.8187C346.618 36.1996 345.966 38.8081 345.254 41.5833L340.389 61.4499H354.257V61.465Z" fill="black"/>
<path d="M390.044 97.9978C389.09 97.9978 388.332 97.2243 388.332 96.2841V90.8094C388.332 89.9147 389.014 89.1716 389.908 89.0957C391.333 88.9744 392.318 88.5953 392.818 87.9735C393.409 87.2607 393.818 85.9869 394.015 84.3187C394.243 82.3624 394.349 79.8904 394.349 76.9938V16.7876L388.786 16.8786C385.877 16.8786 383.906 18.1828 382.557 21.0036C381.057 24.1579 380.284 29.2231 380.284 36.0627C380.284 37.0181 379.511 37.7764 378.571 37.7764H374.479C374.024 37.7764 373.57 37.5944 373.252 37.2607C372.933 36.9271 372.751 36.4873 372.767 36.0172L373.282 9.14429C373.297 8.20404 374.07 7.46094 374.994 7.46094H426.358C427.298 7.46094 428.056 8.20404 428.071 9.14429L428.586 36.0172C428.586 36.4722 428.42 36.9271 428.101 37.2607C427.783 37.5944 427.344 37.7764 426.874 37.7764H422.782C421.842 37.7764 421.069 37.0181 421.069 36.0779C421.008 31.4828 420.645 27.6308 419.978 24.6129C419.356 21.8073 418.356 19.7145 417.007 18.38C415.81 17.1971 414.188 16.6359 412.051 16.6359H411.687H407.08L406.989 79.6174C406.989 81.8619 406.989 83.8789 406.944 85.6836C406.944 86.548 406.898 87.3214 406.868 88.019C407.413 87.9735 407.974 87.9432 408.565 87.928C409.838 87.8825 410.99 87.8219 412.006 87.746C412.051 87.746 412.097 87.746 412.142 87.746C412.566 87.746 412.991 87.9128 413.309 88.201C413.658 88.5195 413.855 88.9896 413.855 89.4597V96.2993C413.855 97.2547 413.082 98.0129 412.142 98.0129H390.029L390.044 97.9978Z" fill="black"/>
<path d="M434.814 97.9983C433.859 97.9983 433.101 97.2249 433.101 96.2846V90.81C433.101 89.9152 433.783 89.1721 434.677 89.0963C436.117 88.975 437.117 88.5958 437.648 87.9589C438.269 87.2309 438.679 86.0329 438.86 84.395C439.088 82.469 439.194 79.9819 439.194 77.0095V25.2352C439.194 23.385 439.224 21.6107 439.285 19.8818C439.315 18.9871 439.345 18.1682 439.376 17.3947C438.951 17.4251 438.527 17.4554 438.072 17.4857C436.92 17.5767 435.89 17.6525 434.965 17.7284C434.92 17.7284 434.859 17.7284 434.814 17.7284C434.389 17.7284 433.965 17.5615 433.647 17.2734C433.298 16.9549 433.086 16.4848 433.086 15.9995V9.15997C433.086 8.20455 433.859 7.44629 434.799 7.44629H477.281C478.221 7.44629 478.979 8.18939 478.994 9.12964L479.433 31.6501C479.433 32.1051 479.267 32.56 478.948 32.8937C478.63 33.2273 478.191 33.4093 477.721 33.4093H473.886C472.931 33.4093 472.174 32.6359 472.174 31.6956C472.174 27.2218 471.673 23.8096 470.703 21.55C469.809 19.4572 468.672 18.0772 467.354 17.4402C466.035 16.8033 464.611 16.4848 463.11 16.4848C462.959 16.4848 462.807 16.4848 462.656 16.4848L456.563 16.7275C455.153 16.7275 454.168 17.0156 453.577 17.5767C452.956 18.1682 452.501 19.2752 452.274 20.8069C452.001 22.6571 451.864 25.2352 451.864 28.4502V46.2695H462.701L462.261 37.3674C462.231 36.8973 462.413 36.4423 462.731 36.0935C463.05 35.7599 463.504 35.5628 463.974 35.5628H468.763C469.718 35.5628 470.476 36.3362 470.476 37.2764V64.7711C470.476 65.7265 469.703 66.4848 468.763 66.4848H464.929C463.974 66.4848 463.216 65.7114 463.216 64.7711C463.216 60.6613 462.716 58.705 462.292 57.7799C461.625 56.3241 460.761 55.9601 460.155 55.8084C459.291 55.581 458.26 55.4748 457.063 55.4748C456.517 55.4748 455.926 55.5051 455.32 55.5506L451.864 55.7174V79.9668C451.864 82.2112 451.864 84.1979 451.819 85.9116C451.804 86.7911 451.773 87.5949 451.743 88.3077L464.823 88.0954C466.763 88.0195 468.475 87.5191 470.037 86.5485C471.507 85.6386 472.704 83.9704 473.598 81.6046C474.568 79.072 475.053 75.5082 475.053 71.0192C475.053 70.0638 475.826 69.3056 476.766 69.3056H480.6C481.055 69.3056 481.51 69.4875 481.828 69.8212C482.146 70.1548 482.328 70.5946 482.313 71.0647L481.798 96.3301C481.783 97.2704 481.01 98.0135 480.085 98.0135H434.829L434.814 97.9983Z" fill="black"/>
<path d="M492.801 99.9994C490.739 99.9994 488.981 98.9075 487.542 96.7389C486.253 94.7977 485.602 92.432 485.602 89.687C485.602 86.9421 486.268 84.6825 487.587 82.6958C489.057 80.4969 490.83 79.3746 492.892 79.3746C494.407 79.3746 496.559 79.9661 498.242 82.7565C499.409 84.728 500.015 87.0483 500.015 89.6719C500.015 92.2955 499.363 94.7826 498.075 96.7237C496.635 98.8924 494.862 99.9843 492.816 99.9843L492.801 99.9994ZM490.8 70.139C489.891 70.139 489.148 69.4414 489.087 68.5314L485.692 17.1362C485.556 14.5278 485.996 12.0407 486.996 9.69007C488.481 6.20206 491.012 5.47412 492.892 5.47412C494.771 5.47412 497.393 6.21722 498.803 9.73557C499.742 12.0862 500.106 14.5885 499.924 17.1514L496.62 68.5163C496.559 69.4262 495.817 70.1238 494.907 70.1238H490.815L490.8 70.139Z" fill="black"/>
</g>
<defs>
<clipPath id="clip0_847_248">
<rect width="500" height="100" fill="white"/>
</clipPath>
</defs>
</svg>
